<?xml version="1.0" encoding="utf-8"?>
<!-- Generator: Adobe Illustrator 19.1.0, SVG Export Plug-In . SVG Version: 6.00 Build 0)  -->
<svg version="1.1" id="Layer_1" xmlns="http://www.w3.org/2000/svg" xmlns:xlink="http://www.w3.org/1999/xlink" x="0px" y="0px"
	 viewBox="0 0 108.8 110.7" style="enable-background:new 0 0 108.8 110.7;" xml:space="preserve">
<style type="text/css">
	.st0{fill:none;stroke:#404549;stroke-width:2.8;stroke-linecap:round;stroke-linejoin:round;stroke-miterlimit:22.9256;}
</style>
<g>
	<g>
		<ellipse class="st0" cx="54.4" cy="55.4" rx="53" ry="54"/>
	</g>
	<g>
		<line class="st0" x1="27.1" y1="73.7" x2="53.9" y2="73.7"/>
		<polyline class="st0" points="29,73.4 29,49.7 38,49.7 38,73.4 		"/>
		<polyline class="st0" points="43.3,73.4 43.3,39.5 52.3,39.5 52.3,73.4 		"/>
		<polyline class="st0" points="57.6,57.4 57.6,28.3 66.6,28.3 66.6,52.9 		"/>
		<path class="st0" d="M67.5,53.5c-7.8,0-14.2,6.5-14.2,14.5c0,8,6.4,14.5,14.2,14.5c7.8,0,14.2-6.5,14.2-14.5
			C81.7,60,75.3,53.5,67.5,53.5L67.5,53.5z"/>
		<path class="st0" d="M72.8,61.7c-1.1,0.5-10.1,10.6-11.7,12"/>
		<polyline class="st0" points="72.8,71.9 72.8,61.7 62.8,61.7 		"/>
	</g>
</g>
</svg>
