<?xml version="1.0" encoding="utf-8"?>
<!-- Generator: Adobe Illustrator 19.1.0, SVG Export Plug-In . SVG Version: 6.00 Build 0)  -->
<svg version="1.1" id="Layer_1" xmlns="http://www.w3.org/2000/svg" xmlns:xlink="http://www.w3.org/1999/xlink" x="0px" y="0px"
	 viewBox="0 0 108.8 110.7" style="enable-background:new 0 0 108.8 110.7;" xml:space="preserve">
<style type="text/css">
	.st0{fill:none;stroke:#404549;stroke-width:2.8;stroke-linecap:round;stroke-linejoin:round;stroke-miterlimit:22.9256;}
</style>
<g>
	<ellipse class="st0" cx="54.4" cy="55.4" rx="53" ry="54"/>
	<g>
		<path class="st0" d="M48.5,67.8c-0.5-8.2-6.8-4.1-7.5-15.2c-0.5-7.1,6-12.8,13.4-12.8s13.9,5.8,13.4,12.8c-0.7,9.5-5.3,7.6-7,12.6
			"/>
		<line class="st0" x1="48.7" y1="77.6" x2="60.8" y2="74.4"/>
		<line class="st0" x1="48.7" y1="73" x2="60.8" y2="69.8"/>
		<line class="st0" x1="48.7" y1="68.4" x2="60.8" y2="65.1"/>
		<path class="st0" d="M58.7,76.1c0,2.1-1.9,3.8-4.3,3.8c-1.5,0-2.8-0.7-3.6-1.7"/>
		<line class="st0" x1="54.8" y1="30.8" x2="54.8" y2="34.9"/>
		<line class="st0" x1="69.5" y1="36.5" x2="66.7" y2="39.4"/>
		<line class="st0" x1="76.2" y1="52.6" x2="72.1" y2="52.6"/>
		<line class="st0" x1="68.9" y1="68" x2="66.1" y2="65"/>
		<line class="st0" x1="39.9" y1="36.5" x2="42.7" y2="39.4"/>
		<line class="st0" x1="32.6" y1="51.7" x2="36.7" y2="51.7"/>
		<line class="st0" x1="39.3" y1="68" x2="42.1" y2="65"/>
	</g>
</g>
</svg>
